<svg width="21" height="24" viewBox="0 0 21 24" fill="none" xmlns="http://www.w3.org/2000/svg">
<path d="M14.7188 13.5C16.4375 13.5 17.9141 14.1172 19.1484 15.3516C20.3828 16.5859 21 18.0625 21 19.7812V21.75C21 22.375 20.7812 22.9062 20.3438 23.3438C19.9062 23.7812 19.375 24 18.75 24H2.25C1.625 24 1.09375 23.7812 0.65625 23.3438C0.21875 22.9062 0 22.375 0 21.75V19.7812C0 18.0625 0.617188 16.5859 1.85156 15.3516C3.08594 14.1172 4.5625 13.5 6.28125 13.5C6.6875 13.5 7.28906 13.625 8.08594 13.875C8.88281 14.125 9.6875 14.25 10.5 14.25C11.3125 14.25 12.125 14.125 12.9375 13.875C13.75 13.625 14.3438 13.5 14.7188 13.5ZM19.5 21.75V19.7812C19.5 18.4688 19.0312 17.3438 18.0938 16.4062C17.1562 15.4688 16.0312 15 14.7188 15C14.5312 15 14.0078 15.125 13.1484 15.375C12.2891 15.625 11.4062 15.75 10.5 15.75C9.59375 15.75 8.71094 15.625 7.85156 15.375C6.99219 15.125 6.46875 15 6.28125 15C4.96875 15 3.84375 15.4688 2.90625 16.4062C1.96875 17.3438 1.5 18.4688 1.5 19.7812V21.75C1.5 21.9688 1.57031 22.1484 1.71094 22.2891C1.85156 22.4297 2.03125 22.5 2.25 22.5H18.75C18.9688 22.5 19.1484 22.4297 19.2891 22.2891C19.4297 22.1484 19.5 21.9688 19.5 21.75ZM14.7422 10.2422C14.7422 10.2422 14.4492 10.5352 13.8633 11.1211C13.2773 11.707 12.1562 12 10.5 12C8.84375 12 7.42969 11.4141 6.25781 10.2422C5.08594 9.07031 4.5 7.65625 4.5 6C4.5 4.34375 5.08594 2.92969 6.25781 1.75781C7.42969 0.585938 8.84375 0 10.5 0C12.1562 0 13.5703 0.585938 14.7422 1.75781C15.9141 2.92969 16.5 4.34375 16.5 6C16.5 7.65625 15.9141 9.07031 14.7422 10.2422ZM13.6875 2.8125C13.6875 2.8125 13.4688 2.59375 13.0312 2.15625C12.5938 1.71875 11.75 1.5 10.5 1.5C9.25 1.5 8.1875 1.9375 7.3125 2.8125C6.4375 3.6875 6 4.75 6 6C6 7.25 6.4375 8.3125 7.3125 9.1875C8.1875 10.0625 9.25 10.5 10.5 10.5C11.75 10.5 12.8125 10.0625 13.6875 9.1875C14.5625 8.3125 15 7.25 15 6C15 4.75 14.5625 3.6875 13.6875 2.8125Z" fill="#2A322D"/>
</svg>
