<svg width="120" height="24" viewBox="0 0 120 24" fill="none" xmlns="http://www.w3.org/2000/svg">
<path d="M11.5251 2.29502C11.5689 2.20648 11.6366 2.13195 11.7205 2.07984C11.8045 2.02773 11.9013 2.00012 12.0001 2.00012C12.0989 2.00012 12.1957 2.02773 12.2796 2.07984C12.3636 2.13195 12.4313 2.20648 12.4751 2.29502L14.7851 6.97402C14.9373 7.28198 15.1619 7.54842 15.4397 7.75047C15.7175 7.95251 16.0402 8.08413 16.3801 8.13402L21.5461 8.89002C21.644 8.9042 21.7359 8.94549 21.8116 9.00921C21.8872 9.07294 21.9435 9.15656 21.9741 9.25062C22.0047 9.34468 22.0084 9.44542 21.9847 9.54145C21.961 9.63748 21.9109 9.72497 21.8401 9.79402L18.1041 13.432C17.8577 13.6721 17.6734 13.9685 17.5669 14.2956C17.4605 14.6228 17.4352 14.9709 17.4931 15.31L18.3751 20.45C18.3924 20.5479 18.3818 20.6486 18.3446 20.7407C18.3074 20.8328 18.245 20.9126 18.1646 20.971C18.0842 21.0294 17.9891 21.064 17.89 21.0709C17.7908 21.0778 17.6918 21.0567 17.6041 21.01L12.9861 18.582C12.6818 18.4222 12.3433 18.3388 11.9996 18.3388C11.6559 18.3388 11.3174 18.4222 11.0131 18.582L6.39609 21.01C6.30842 21.0564 6.20949 21.0773 6.11054 21.0703C6.0116 21.0632 5.91661 21.0286 5.83639 20.9702C5.75616 20.9119 5.69392 20.8322 5.65675 20.7402C5.61957 20.6483 5.60895 20.5477 5.62609 20.45L6.50709 15.311C6.56529 14.9717 6.54007 14.6234 6.43363 14.2961C6.32718 13.9687 6.1427 13.6722 5.89609 13.432L2.16009 9.79502C2.08868 9.72605 2.03808 9.63841 2.01405 9.54209C1.99002 9.44577 1.99353 9.34463 2.02417 9.25021C2.05481 9.15578 2.11136 9.07186 2.18737 9.008C2.26338 8.94414 2.35579 8.90291 2.45409 8.88902L7.61909 8.13402C7.95935 8.08451 8.28248 7.95307 8.56067 7.751C8.83887 7.54893 9.06379 7.28229 9.21609 6.97402L11.5251 2.29502Z" fill="#8AD1FD"/>
<path d="M107.525 2.29502C107.569 2.20648 107.637 2.13195 107.721 2.07984C107.804 2.02773 107.901 2.00012 108 2.00012C108.099 2.00012 108.196 2.02773 108.28 2.07984C108.364 2.13195 108.431 2.20648 108.475 2.29502L110.785 6.97402C110.937 7.28198 111.162 7.54842 111.44 7.75047C111.718 7.95251 112.04 8.08413 112.38 8.13402L117.546 8.89002C117.644 8.9042 117.736 8.94549 117.812 9.00921C117.887 9.07294 117.944 9.15656 117.974 9.25062C118.005 9.34468 118.008 9.44542 117.985 9.54145C117.961 9.63748 117.911 9.72497 117.84 9.79402L114.104 13.432C113.858 13.6721 113.673 13.9685 113.567 14.2956C113.46 14.6228 113.435 14.9709 113.493 15.31L114.375 20.45C114.392 20.5479 114.382 20.6486 114.345 20.7407C114.307 20.8328 114.245 20.9126 114.165 20.971C114.084 21.0294 113.989 21.064 113.89 21.0709C113.791 21.0778 113.692 21.0567 113.604 21.01L108.986 18.582C108.682 18.4222 108.343 18.3388 108 18.3388C107.656 18.3388 107.317 18.4222 107.013 18.582L102.396 21.01C102.308 21.0564 102.209 21.0773 102.111 21.0703C102.012 21.0632 101.917 21.0286 101.836 20.9702C101.756 20.9119 101.694 20.8322 101.657 20.7402C101.62 20.6483 101.609 20.5477 101.626 20.45L102.507 15.311C102.565 14.9717 102.54 14.6234 102.434 14.2961C102.327 13.9687 102.143 13.6722 101.896 13.432L98.1601 9.79502C98.0887 9.72605 98.0381 9.63841 98.0141 9.54209C97.99 9.44577 97.9935 9.34463 98.0242 9.25021C98.0548 9.15578 98.1114 9.07186 98.1874 9.008C98.2634 8.94414 98.3558 8.90291 98.4541 8.88902L103.619 8.13402C103.959 8.08451 104.282 7.95307 104.561 7.751C104.839 7.54893 105.064 7.28229 105.216 6.97402L107.525 2.29502Z" fill="#8AD1FD"/>
<path d="M83.5251 2.29502C83.5689 2.20648 83.6366 2.13195 83.7205 2.07984C83.8045 2.02773 83.9013 2.00012 84.0001 2.00012C84.0989 2.00012 84.1957 2.02773 84.2796 2.07984C84.3636 2.13195 84.4313 2.20648 84.4751 2.29502L86.7851 6.97402C86.9373 7.28198 87.1619 7.54842 87.4397 7.75047C87.7175 7.95251 88.0402 8.08413 88.3801 8.13402L93.5461 8.89002C93.644 8.9042 93.7359 8.94549 93.8116 9.00921C93.8872 9.07294 93.9435 9.15656 93.9741 9.25062C94.0047 9.34468 94.0084 9.44542 93.9847 9.54145C93.961 9.63748 93.9109 9.72497 93.8401 9.79402L90.1041 13.432C89.8577 13.6721 89.6734 13.9685 89.5669 14.2956C89.4605 14.6228 89.4352 14.9709 89.4931 15.31L90.3751 20.45C90.3924 20.5479 90.3818 20.6486 90.3446 20.7407C90.3074 20.8328 90.245 20.9126 90.1646 20.971C90.0842 21.0294 89.9891 21.064 89.89 21.0709C89.7908 21.0778 89.6918 21.0567 89.6041 21.01L84.9861 18.582C84.6818 18.4222 84.3433 18.3388 83.9996 18.3388C83.6559 18.3388 83.3174 18.4222 83.0131 18.582L78.3961 21.01C78.3084 21.0564 78.2095 21.0773 78.1105 21.0703C78.0116 21.0632 77.9166 21.0286 77.8364 20.9702C77.7562 20.9119 77.6939 20.8322 77.6567 20.7402C77.6196 20.6483 77.6089 20.5477 77.6261 20.45L78.5071 15.311C78.5653 14.9717 78.5401 14.6234 78.4336 14.2961C78.3272 13.9687 78.1427 13.6722 77.8961 13.432L74.1601 9.79502C74.0887 9.72605 74.0381 9.63841 74.0141 9.54209C73.99 9.44577 73.9935 9.34463 74.0242 9.25021C74.0548 9.15578 74.1114 9.07186 74.1874 9.008C74.2634 8.94414 74.3558 8.90291 74.4541 8.88902L79.6191 8.13402C79.9593 8.08451 80.2825 7.95307 80.5607 7.751C80.8389 7.54893 81.0638 7.28229 81.2161 6.97402L83.5251 2.29502Z" fill="#8AD1FD"/>
<path d="M59.5268 2.29489C59.5706 2.20635 59.6383 2.13183 59.7223 2.07972C59.8062 2.02761 59.903 2 60.0018 2C60.1006 2 60.1974 2.02761 60.2813 2.07972C60.3653 2.13183 60.433 2.20635 60.4768 2.29489L62.7868 6.97389C62.939 7.28186 63.1636 7.5483 63.4414 7.75035C63.7192 7.95239 64.0419 8.08401 64.3818 8.13389L69.5478 8.88989C69.6457 8.90408 69.7376 8.94537 69.8133 9.00909C69.8889 9.07282 69.9452 9.15644 69.9758 9.2505C70.0064 9.34456 70.0101 9.4453 69.9864 9.54133C69.9627 9.63736 69.9126 9.72485 69.8418 9.79389L66.1058 13.4319C65.8594 13.672 65.6751 13.9684 65.5686 14.2955C65.4622 14.6227 65.4369 14.9708 65.4948 15.3099L66.3768 20.4499C66.3941 20.5477 66.3835 20.6485 66.3463 20.7406C66.3091 20.8327 66.2467 20.9125 66.1663 20.9709C66.086 21.0293 65.9908 21.0639 65.8917 21.0708C65.7926 21.0777 65.6935 21.0566 65.6058 21.0099L60.9878 18.5819C60.6835 18.4221 60.345 18.3386 60.0013 18.3386C59.6576 18.3386 59.3191 18.4221 59.0148 18.5819L54.3978 21.0099C54.3101 21.0563 54.2112 21.0772 54.1123 21.0701C54.0133 21.0631 53.9183 21.0285 53.8381 20.9701C53.7579 20.9118 53.6956 20.8321 53.6585 20.7401C53.6213 20.6482 53.6107 20.5476 53.6278 20.4499L54.5088 15.3109C54.567 14.9716 54.5418 14.6233 54.4353 14.2959C54.3289 13.9686 54.1444 13.672 53.8978 13.4319L50.1618 9.79489C50.0904 9.72593 50.0398 9.63829 50.0158 9.54197C49.9917 9.44565 49.9952 9.34451 50.0259 9.25008C50.0565 9.15566 50.1131 9.07174 50.1891 9.00788C50.2651 8.94402 50.3575 8.90279 50.4558 8.88889L55.6208 8.13389C55.9611 8.08439 56.2842 7.95295 56.5624 7.75088C56.8406 7.54881 57.0655 7.28216 57.2178 6.97389L59.5268 2.29489Z" fill="#8AD1FD"/>
<path d="M35.5251 2.29502C35.5689 2.20648 35.6366 2.13195 35.7205 2.07984C35.8045 2.02773 35.9013 2.00012 36.0001 2.00012C36.0989 2.00012 36.1957 2.02773 36.2796 2.07984C36.3636 2.13195 36.4313 2.20648 36.4751 2.29502L38.7851 6.97402C38.9373 7.28198 39.1619 7.54842 39.4397 7.75047C39.7175 7.95251 40.0402 8.08413 40.3801 8.13402L45.5461 8.89002C45.644 8.9042 45.7359 8.94549 45.8116 9.00921C45.8872 9.07294 45.9435 9.15656 45.9741 9.25062C46.0047 9.34468 46.0084 9.44542 45.9847 9.54145C45.961 9.63748 45.9109 9.72497 45.8401 9.79402L42.1041 13.432C41.8577 13.6721 41.6734 13.9685 41.5669 14.2956C41.4605 14.6228 41.4352 14.9709 41.4931 15.31L42.3751 20.45C42.3924 20.5479 42.3818 20.6486 42.3446 20.7407C42.3074 20.8328 42.245 20.9126 42.1646 20.971C42.0842 21.0294 41.9891 21.064 41.89 21.0709C41.7908 21.0778 41.6918 21.0567 41.6041 21.01L36.9861 18.582C36.6818 18.4222 36.3433 18.3388 35.9996 18.3388C35.6559 18.3388 35.3174 18.4222 35.0131 18.582L30.3961 21.01C30.3084 21.0564 30.2095 21.0773 30.1105 21.0703C30.0116 21.0632 29.9166 21.0286 29.8364 20.9702C29.7562 20.9119 29.6939 20.8322 29.6567 20.7402C29.6196 20.6483 29.6089 20.5477 29.6261 20.45L30.5071 15.311C30.5653 14.9717 30.5401 14.6234 30.4336 14.2961C30.3272 13.9687 30.1427 13.6722 29.8961 13.432L26.1601 9.79502C26.0887 9.72605 26.0381 9.63841 26.0141 9.54209C25.99 9.44577 25.9935 9.34463 26.0242 9.25021C26.0548 9.15578 26.1114 9.07186 26.1874 9.008C26.2634 8.94414 26.3558 8.90291 26.4541 8.88902L31.6191 8.13402C31.9593 8.08451 32.2825 7.95307 32.5607 7.751C32.8389 7.54893 33.0638 7.28229 33.2161 6.97402L35.5251 2.29502Z" fill="#8AD1FD"/>
</svg>
