<svg viewBox="0.76 0.19 27.72 31.76" xmlns="http://www.w3.org/2000/svg">
	<path fill="#0AA6D7" d="M 0.792 19.985 L 0.806 11.752 C 0.704 10.931 1.884 10.288 2.123 9.99 L 13 1 C 14.254 -0.016 14.835 -0.058 16 1 L 27.593 10.585 C 27.907 10.978 28.554 11.311 28.456 11.979 L 28.48 31.039 C 28.441 31.804 27.892 32.001 27.264 31.981 L 2.457 31.906 C 1.585 31.971 0.81 31.777 0.76 30.907 Z M 26.317 19.961 L 26.342 12.986 C 26.442 12.08 25.687 11.828 24.881 11.123 L 15.097 2.857 C 14.704 2.536 14.632 2.512 14.191 2.846 L 3.579 11.578 C 2.947 12.031 2.721 12.269 2.731 13.166 L 2.731 28.968 C 2.763 29.841 3.054 30.002 3.991 29.97 L 25 30 C 25.836 30.034 26.288 30.002 26.288 28.968 Z M 6.273 17.009 L 6.273 13.868 C 6.264 13.217 6.247 12.938 7.033 12.909 C 12.376 12.642 13.641 13.973 14.571 14.992 C 16.123 13.119 18.653 12.724 21.943 12.678 C 22.629 12.692 22.744 12.987 22.737 13.306 L 22.704 23.918 C 22.69 24.526 22.453 24.812 21.943 24.91 C 18.135 25.18 17.229 24.885 15.662 27.423 C 15.507 27.998 13.804 28.014 13.571 27.392 C 12.563 25.153 10.231 24.94 7.092 24.874 C 6.484 24.775 6.264 24.339 6.24 23.852 Z M 13.546 20.976 L 13.546 16.943 C 12.782 15.716 11.18 14.472 8.29 14.827 L 8.257 23.026 C 10.27 23.074 11.467 22.898 13.513 24.348 Z M 15.695 19.951 L 15.695 24.348 C 16.576 23.474 18.495 22.884 20.819 23.059 L 20.753 14.86 C 19.338 14.702 16.365 15.126 15.648 16.917 Z"/>
</svg>