<svg width="385" height="77" viewBox="0 0 385 77" fill="none" xmlns="http://www.w3.org/2000/svg">
    <path d="M38.5 0L47.1438 26.6028L75.1157 26.6028L52.4859 43.0443L61.1297 69.6472L38.5 53.2057L15.8703 69.6472L24.5141 43.0443L1.88432 26.6028L29.8562 26.6028L38.5 0Z" fill="#D9D9D9"/>
    <path d="M115.5 0L124.144 26.6028L152.116 26.6028L129.486 43.0443L138.13 69.6472L115.5 53.2057L92.8703 69.6472L101.514 43.0443L78.8843 26.6028L106.856 26.6028L115.5 0Z" fill="#D9D9D9"/>
    <path d="M192.5 0L201.144 26.6028L229.116 26.6028L206.486 43.0443L215.13 69.6472L192.5 53.2057L169.87 69.6472L178.514 43.0443L155.884 26.6028L183.856 26.6028L192.5 0Z" fill="#D9D9D9"/>
    <path d="M269.5 0L278.144 26.6028L306.116 26.6028L283.486 43.0443L292.13 69.6472L269.5 53.2057L246.87 69.6472L255.514 43.0443L232.884 26.6028L260.856 26.6028L269.5 0Z" fill="#D9D9D9"/>
    <path d="M346.5 0L355.144 26.6028L383.116 26.6028L360.486 43.0443L369.13 69.6472L346.5 53.2057L323.87 69.6472L332.514 43.0443L309.884 26.6028L337.856 26.6028L346.5 0Z" fill="#D9D9D9"/>
</svg>
