<svg width="36" height="29" viewBox="0 0 36 29" fill="none" xmlns="http://www.w3.org/2000/svg">
    <path d="M19.8448 0.0345308C18.1137 0.200606 16.5451 0.91141 15.4507 2.02412L15.202 2.27987L14.9069 2.15033C13.9418 1.72518 13.063 1.53253 11.9553 1.50264C11.2125 1.48271 10.6819 1.53253 10.0153 1.67868C7.17983 2.31309 5.16019 4.43221 5.13698 6.7938L5.13366 7.12927L4.81198 7.20567C3.51198 7.51789 2.43086 8.08587 1.57857 8.89964C0.530611 9.89941 0 11.0785 0 12.3972C0 12.9353 0.0563774 13.3139 0.205612 13.7823C0.550509 14.8651 1.35306 15.8848 2.43749 16.6089C3.03775 17.0108 3.96632 17.4127 4.72575 17.5987L5.02422 17.6717V18.1766C5.02754 18.5154 5.04744 18.7778 5.08392 18.9738C5.55152 21.332 7.7436 23.1223 10.6454 23.5176C11.05 23.5741 12.2339 23.5741 12.6186 23.5209C13.7959 23.3548 14.8604 22.9828 15.6862 22.4481C15.7956 22.3783 15.8984 22.3185 15.915 22.3185C15.9283 22.3185 16.0278 22.3883 16.1372 22.4713C17.4869 23.5276 19.3043 24.0623 21.1283 23.9461C22.2226 23.8763 23.1081 23.6471 24.0267 23.1987C25.151 22.6507 26.0563 21.8336 26.64 20.8405C26.7262 20.6943 26.7395 20.6843 26.839 20.7043C28.1356 20.9766 29.1438 20.9866 30.3045 20.7408C32.7951 20.216 34.7252 18.4888 35.1563 16.3963C35.4713 14.8651 34.9507 13.2375 33.7833 12.0916L33.5645 11.879L33.6275 11.7893C33.7668 11.5934 34.0652 10.9224 34.1614 10.5936C34.2974 10.122 34.3305 9.85955 34.3305 9.33143C34.3272 7.13592 32.679 5.16294 30.1619 4.33921C29.356 4.07349 28.6563 3.97052 27.7045 3.9672H26.9716L26.8953 3.76791C26.5803 2.93089 25.8938 2.05733 25.0548 1.4196C23.6851 0.38329 21.692 -0.144831 19.8448 0.0345308Z" fill="#000"/>
    <path  d="M6.87473 24.5274C6.59616 24.5905 6.20484 24.7565 5.99259 24.8994C5.57805 25.1817 5.21989 25.6334 5.07066 26.0719C4.97117 26.3708 4.94464 26.9056 5.02091 27.2012C5.19336 27.8688 5.62448 28.3869 6.28443 28.7158C7.32244 29.2306 8.60585 29.0081 9.38519 28.1777C10.5326 26.9554 9.92906 25.0854 8.22448 24.5705C7.93927 24.4809 7.1732 24.4576 6.87473 24.5274Z" fill="#000"/>
</svg>
