<svg width="35" height="41" viewBox="0 0 35 41" xmlns="http://www.w3.org/2000/svg">
    <path fill="#000" d="M27.3984 25.1045C31.2205 24.0461 35 26.9217 35 30.8877V41H0V30.8877C0 26.9217 3.77945 24.0461 7.60156 25.1045L16.9658 27.6982C17.3151 27.795 17.6849 27.795 18.0342 27.6982L27.3984 25.1045ZM19.5625 0.262695C19.6279 0.270935 19.7352 0.304417 19.8486 0.341797C19.9733 0.38289 20.1369 0.439773 20.332 0.510742C20.7235 0.653079 21.2493 0.852273 21.8604 1.08887C23.0827 1.56218 24.6518 2.18786 26.1836 2.81445C27.7149 3.44086 29.2118 4.06996 30.2891 4.5498C30.8266 4.78923 31.2656 4.99304 31.5518 5.14258C31.6912 5.21544 31.8084 5.2825 31.8828 5.33789C31.9022 5.35233 31.9228 5.37027 31.9424 5.38965C31.9588 5.40585 31.991 5.43945 32.0127 5.48828C32.0375 5.54444 32.06 5.65685 31.9814 5.75879C31.9216 5.83588 31.8402 5.85414 31.8135 5.85938C31.6135 5.89838 31.4795 5.92408 31.3906 5.94141L31.2158 7.34668C31.4122 7.4015 31.5969 7.47232 31.7539 7.56055C32.0314 7.71653 32.3151 7.98302 32.2588 8.36523C32.1781 8.91135 31.772 9.28118 31.4365 9.50098C31.2665 9.61234 31.1012 9.69303 30.9785 9.74707C30.9976 9.82531 31.0211 9.9226 31.0479 10.0342C31.1202 10.336 31.2163 10.7437 31.3105 11.165C31.4047 11.5858 31.4973 12.0231 31.5635 12.3838C31.5965 12.5638 31.6228 12.7278 31.6396 12.8623C31.6554 12.9877 31.6665 13.1148 31.6553 13.2051C31.6295 13.4103 31.4504 13.5006 31.3525 13.5371C31.236 13.5805 31.0913 13.603 30.9434 13.6143C30.6426 13.6372 30.2585 13.6185 29.8877 13.5723C29.5172 13.526 29.142 13.4503 28.8584 13.3545C28.7189 13.3074 28.5838 13.2502 28.4824 13.1787C28.3968 13.1183 28.2447 12.9811 28.2803 12.7725C28.2873 12.7312 28.3022 12.6829 28.3193 12.6309C28.3265 12.6091 28.3344 12.5864 28.3428 12.5635C28.3516 12.5392 28.3605 12.514 28.3701 12.4893C28.3718 12.485 28.3733 12.48 28.375 12.4756C28.3781 12.4677 28.3816 12.46 28.3848 12.4521C28.4161 12.3734 28.4557 12.2843 28.498 12.1875C28.5103 12.1595 28.5212 12.1298 28.5342 12.1006C28.5414 12.0843 28.5492 12.0674 28.5566 12.0508C28.5643 12.0337 28.5722 12.0165 28.5801 11.999C28.6112 11.9302 28.6454 11.859 28.6797 11.7852C28.7199 11.6986 28.7603 11.6079 28.8037 11.5166C28.8536 11.4117 28.9057 11.3043 28.958 11.1963C28.9748 11.1616 28.9919 11.1266 29.0088 11.0918C29.0191 11.0707 29.0297 11.0494 29.04 11.0283C29.069 10.9691 29.097 10.9094 29.126 10.8506C29.2175 10.6644 29.3108 10.4817 29.3965 10.3105C29.4609 10.1818 29.5208 10.0588 29.5771 9.94727C29.6053 9.89161 29.6319 9.83804 29.6572 9.78809C29.6925 9.71859 29.7252 9.65496 29.7539 9.59863C29.6457 9.51576 29.5019 9.3943 29.3613 9.24219C29.088 8.94645 28.7826 8.484 28.8643 7.93066C28.9201 7.55412 29.2628 7.37 29.5732 7.28809C29.9014 7.20163 30.3066 7.19351 30.6895 7.24121C30.701 7.24265 30.7131 7.24455 30.7246 7.24609L30.875 6.03516C30.6663 6.07107 30.3667 6.12266 29.999 6.18555C29.277 6.30902 28.2903 6.47701 27.2061 6.65918L26.6768 10.9062C27.2526 12.1724 27.5761 13.5775 27.5762 15.0586C27.5762 20.6139 23.0647 25.1172 17.5 25.1172C11.9353 25.1172 7.42384 20.6139 7.42383 15.0586C7.42389 12.0738 8.72749 9.39388 10.7959 7.55176L11.1523 4.69336C11.0453 4.64488 10.8917 4.57538 10.7061 4.49121C10.334 4.32256 9.83152 4.09508 9.3125 3.85938C8.27626 3.38879 7.16778 2.88357 6.88867 2.75195C6.86331 2.73999 6.794 2.70424 6.75391 2.62207C6.70183 2.51507 6.73531 2.41409 6.77344 2.35742C6.80493 2.3109 6.84424 2.28251 6.86426 2.26953C6.88817 2.25405 6.91373 2.24226 6.93555 2.23242C7.0185 2.19508 7.14373 2.15752 7.28906 2.12012C7.58806 2.04317 8.04087 1.94921 8.59375 1.8457C9.70207 1.63821 11.2355 1.38671 12.8018 1.14648C14.3686 0.906181 15.9715 0.6762 17.2188 0.510742C17.8418 0.428097 18.3776 0.361252 18.7764 0.317383C18.9753 0.295504 19.1425 0.279335 19.2695 0.269531C19.385 0.260628 19.4963 0.254439 19.5625 0.262695Z"/>
</svg>
