<svg viewBox="0.4 0.1 80 32" xmlns="http://www.w3.org/2000/svg">
    <path fill="#0AA6D7" name="home" d="M 0.792 19.985 L 0.806 11.752 C 0.704 10.931 1.884 10.288 2.123 9.99 L 13 1 C 14.254 -0.016 14.835 -0.058 16 1 L 27.593 10.585 C 27.907 10.978 28.554 11.311 28.456 11.979 L 28.48 31.039 C 28.441 31.804 27.892 32.001 27.264 31.981 L 2.457 31.906 C 1.585 31.971 0.81 31.777 0.76 30.907 Z M 26.317 19.961 L 26.342 12.986 C 26.442 12.08 25.687 11.828 24.881 11.123 L 15.097 2.857 C 14.704 2.536 14.632 2.512 14.191 2.846 L 3.579 11.578 C 2.947 12.031 2.721 12.269 2.731 13.166 L 2.731 28.968 C 2.763 29.841 3.054 30.002 3.991 29.97 L 25 30 C 25.836 30.034 26.288 30.002 26.288 28.968 Z" />
    <path fill="#0AA6D7" name="book" d="M 6.273 17.009 L 6.273 13.868 C 6.264 13.217 6.247 12.938 7.033 12.909 C 12.376 12.642 13.641 13.973 14.571 14.992 C 16.123 13.119 18.653 12.724 21.943 12.678 C 22.629 12.692 22.744 12.987 22.737 13.306 L 22.704 23.918 C 22.69 24.526 22.453 24.812 21.943 24.91 C 18.135 25.18 17.229 24.885 15.662 27.423 C 15.507 27.998 13.804 28.014 13.571 27.392 C 12.563 25.153 10.231 24.94 7.092 24.874 C 6.484 24.775 6.264 24.339 6.24 23.852 Z M 13.546 20.976 L 13.546 16.943 C 12.782 15.716 11.18 14.472 8.29 14.827 L 8.257 23.026 C 10.27 23.074 11.467 22.898 13.513 24.348 Z M 15.695 19.951 L 15.695 24.348 C 16.576 23.474 18.495 22.884 20.819 23.059 L 20.753 14.86 C 19.338 14.702 16.365 15.126 15.648 16.917 Z"/>
    <path fill="#000" name="R" d="M 34 18 L 34 7 L 37.973 7.039 C 41.71 7 42.599 12.071 39.838 13.602 L 42 18 L 40 18 L 38 14 L 36 14 L 36 18 Z M 36 9 L 36 12 L 38 12 C 40 12 40 9 38 9 Z" />
    <path fill="#000" name="o" d="M 47 12 A 1 1 0 0 0 47 16 A 1 1 0 0 0 47 12 M 47 10 A 1 1 0 0 1 47 18 A 1 1 0 0 1 47 10 Z" />
    <path fill="#000" name="o" d="M 56 12 A 1 1 0 0 1 56 16 A 1 1 0 0 1 56 12 M 56 10 A 1 1 0 0 0 56 18 A 1 1 0 0 0 56 10 Z" />
    <path fill="#000" name="m" d="M 62 10 L 64 10 L 64 11 C 65.283 9.585 68.269 9.526 68.628 11.019 C 69.046 9.824 73.943 9.287 73.883 12.094 L 74 18 L 72 18 L 72 13 C 71.972 11.258 69.225 11.556 69 13 L 69 18 L 67 18 L 67 13 C 66.896 11.377 64.686 11.437 64 13 L 64 18 L 62 18 Z" />
    <path fill="#000" name="S" d="M 33.982 29.549 L 35.482 28.674 C 37 31 40.027 30.565 40 29 C 39.952 25.955 34.82 27.75 34.451 23.486 C 34.545 19.047 40.734 19.672 41.984 21.985 L 40.589 23.165 C 39.276 21.547 36.545 21.548 36.452 23.423 C 36.452 25.986 41.994 24.479 42 29 C 41.886 32.465 36.159 33.236 33.982 29.549 Z" />
    <path fill="#000" name="c" d="M 49.306 26.44 L 50.92 25.566 C 48.967 22.495 43.013 23.014 43 28 C 43.009 32.467 49.405 33.357 50.983 30.098 L 49.332 29.347 C 48.509 30.992 45.008 30.463 45 28 C 45.021 25.17 48.575 25.046 49.317 26.429 Z" />
    <path fill="#000" name="h" d="M 52 20 L 54 20 L 54.015 24.68 C 54.953 23.091 59.047 23.966 59.047 26.967 L 59 32 L 57 32 L 57.016 27.498 C 57.016 25.591 54.14 25.247 53.984 27.967 L 54 32 L 52 32 Z" />
    <path fill="#000" name="o" d="M 64 26 A 1 1 0 0 0 64 30 A 1 1 0 0 0 64 26 M 64 24 A 1 1 0 0 1 64 32 A 1 1 0 0 1 64 24 Z" />
    <path fill="#000" name="o" d="M 73 26 A 1 1 0 0 0 73 30 A 1 1 0 0 0 73 26 M 73 24 A 1 1 0 0 1 73 32 A 1 1 0 0 1 73 24 Z" />
    <path fill="#000" name="l" d="M 78 20 L 80 20 L 80 32 L 78 32 Z" />
</svg>