<svg width="35" height="36" viewBox="0 0 35 36" fill="none" xmlns="http://www.w3.org/2000/svg">
<g filter="url(#filter0_i_19_5740)">
<path d="M27.3984 20.1045C31.2205 19.0461 35 21.9217 35 25.8877V36H0V25.8877C0 21.9217 3.77945 19.0461 7.60156 20.1045L16.9658 22.6982C17.3151 22.795 17.6849 22.795 18.0342 22.6982L27.3984 20.1045ZM17.5 0C23.0646 0 27.576 4.50336 27.5762 10.0586C27.5762 15.6139 23.0647 20.1172 17.5 20.1172C11.9353 20.1172 7.42383 15.6139 7.42383 10.0586C7.42395 4.50336 11.9354 2.57274e-07 17.5 0Z" fill="white"/>
</g>
<defs>
<filter id="filter0_i_19_5740" x="0" y="0" width="35" height="38" filterUnits="userSpaceOnUse" color-interpolation-filters="sRGB">
<feFlood flood-opacity="0" result="BackgroundImageFix"/>
<feBlend mode="normal" in="SourceGraphic" in2="BackgroundImageFix" result="shape"/>
<feColorMatrix in="SourceAlpha" type="matrix" values="0 0 0 0 0 0 0 0 0 0 0 0 0 0 0 0 0 0 127 0" result="hardAlpha"/>
<feOffset dy="2"/>
<feGaussianBlur stdDeviation="2"/>
<feComposite in2="hardAlpha" operator="arithmetic" k2="-1" k3="1"/>
<feColorMatrix type="matrix" values="0 0 0 0 0 0 0 0 0 0 0 0 0 0 0 0 0 0 0.25 0"/>
<feBlend mode="normal" in2="shape" result="effect1_innerShadow_19_5740"/>
</filter>
</defs>
</svg>
