<svg width="25" height="25" viewBox="0 0 25 25" fill="none" xmlns="http://www.w3.org/2000/svg">
<path d="M23.8125 22.5938C24.0938 22.8438 24.0938 23.1094 23.8125 23.3906L23.3906 23.8125C23.1094 24.0938 22.8438 24.0938 22.5938 23.8125L16.5469 17.8125C16.4219 17.6875 16.3594 17.5469 16.3594 17.3906V16.9219C14.4844 18.6406 12.2812 19.5 9.75 19.5C7.0625 19.5 4.76562 18.5469 2.85938 16.6406C0.953125 14.7344 0 12.4375 0 9.75C0 7.0625 0.953125 4.76562 2.85938 2.85938C4.76562 0.953125 7.0625 0 9.75 0C12.4375 0 14.7344 0.953125 16.6406 2.85938C18.5469 4.76562 19.5 7.0625 19.5 9.75C19.5 12.2812 18.6406 14.4844 16.9219 16.3594H17.3906C17.5469 16.3594 17.6875 16.4219 17.8125 16.5469L23.8125 22.5938ZM3.91406 15.5859C3.91406 15.5859 4.31641 15.9883 5.12109 16.793C5.92578 17.5977 7.46875 18 9.75 18C12.0312 18 13.9766 17.1953 15.5859 15.5859C17.1953 13.9766 18 12.0312 18 9.75C18 7.46875 17.1953 5.52344 15.5859 3.91406C13.9766 2.30469 12.0312 1.5 9.75 1.5C7.46875 1.5 5.52344 2.30469 3.91406 3.91406C2.30469 5.52344 1.5 7.46875 1.5 9.75C1.5 12.0312 2.30469 13.9766 3.91406 15.5859Z" fill="#2A322D"/>
</svg>
